<svg width="14" height="16" viewBox="0 0 14 16" fill="none" xmlns="http://www.w3.org/2000/svg">
<path d="M9.16092 0.222229H1.34981C1.07474 0.229511 0.81366 0.345048 0.623294 0.543737C0.432927 0.742425 0.32866 1.00821 0.333147 1.28334V14.7167C0.32866 14.9918 0.432927 15.2576 0.623294 15.4563C0.81366 15.655 1.07474 15.7705 1.34981 15.7778H12.6498C12.9249 15.7705 13.186 15.655 13.3763 15.4563C13.5667 15.2576 13.671 14.9918 13.6665 14.7167V4.62223L9.16092 0.222229ZM8.99426 1.60556L12.3276 4.88334H8.99426V1.60556ZM1.44426 14.6667V1.33334H8.11092V5.77778H12.5554V14.6667H1.44426Z" fill="#7D7D7D"/>
</svg>
