<svg width="20" height="20" viewBox="0 0 20 20" fill="none" xmlns="http://www.w3.org/2000/svg">
<path d="M4.44434 2.22223H13.3332C13.6279 2.22223 13.9105 2.33929 14.1189 2.54767C14.3273 2.75604 14.4443 3.03866 14.4443 3.33334H4.44434V16.6667H13.3332V11.2222H14.4443V16.6667C14.4443 16.9614 14.3273 17.244 14.1189 17.4523C13.9105 17.6607 13.6279 17.7778 13.3332 17.7778H4.44434C4.14965 17.7778 3.86704 17.6607 3.65866 17.4523C3.45029 17.244 3.33323 16.9614 3.33323 16.6667V3.33334C3.33323 3.03866 3.45029 2.75604 3.65866 2.54767C3.86704 2.33929 4.14965 2.22223 4.44434 2.22223Z" fill="#7D7D7D"/>
<path d="M11.5997 10.2555C11.6578 10.3053 11.7051 10.3666 11.7384 10.4356C11.7718 10.5045 11.7905 10.5796 11.7935 10.6561C11.7964 10.7326 11.7835 10.8089 11.7556 10.8802C11.7277 10.9515 11.6853 11.0162 11.6311 11.0703C11.577 11.1245 11.5123 11.1669 11.441 11.1948C11.3697 11.2227 11.2934 11.2356 11.2169 11.2327C11.1404 11.2297 11.0653 11.211 10.9964 11.1776C10.9274 11.1443 10.8661 11.097 10.8163 11.0389L7.59968 7.82221L10.8108 4.60554C10.9171 4.51453 11.0538 4.46697 11.1936 4.47237C11.3334 4.47777 11.466 4.53573 11.565 4.63467C11.6639 4.73361 11.7219 4.86625 11.7273 5.00607C11.7327 5.14589 11.6851 5.2826 11.5941 5.38887L9.7219 7.22221H17.7775C17.9248 7.22221 18.0661 7.28074 18.1703 7.38493C18.2745 7.48911 18.333 7.63042 18.333 7.77776C18.333 7.92511 18.2745 8.06641 18.1703 8.1706C18.0661 8.27479 17.9248 8.33332 17.7775 8.33332H9.7219L11.5997 10.2555Z" fill="#7D7D7D"/>
</svg>
