<svg width="20" height="20" viewBox="0 0 20 20" fill="none" xmlns="http://www.w3.org/2000/svg">
<path d="M18.6783 9.73887C16.8061 6.27776 13.5227 4.18332 9.88939 4.18332C6.25605 4.18332 2.96717 6.27776 1.11161 9.73887L0.956055 9.99999L1.1005 10.2667C2.97272 13.7278 6.25605 15.8222 9.88939 15.8222C13.5227 15.8222 16.8116 13.7555 18.6783 10.2667L18.8227 9.99999L18.6783 9.73887ZM9.88939 14.6833C6.76161 14.6833 3.88939 12.9389 2.22272 9.99999C3.88939 7.0611 6.76161 5.31665 9.88939 5.31665C13.0172 5.31665 15.8561 7.06665 17.5505 9.99999C15.8561 12.9389 13.0116 14.6833 9.88939 14.6833Z" fill="#7D7D7D"/>
<path d="M10.0499 6.20556C9.29663 6.21106 8.56189 6.43966 7.93847 6.86249C7.31505 7.28533 6.83091 7.88343 6.54721 8.58125C6.26352 9.27907 6.19298 10.0453 6.34451 10.7832C6.49604 11.5211 6.86284 12.1975 7.39859 12.7271C7.93433 13.2566 8.61499 13.6155 9.3546 13.7585C10.0942 13.9014 10.8596 13.8219 11.554 13.5301C12.2485 13.2383 12.8409 12.7472 13.2565 12.1189C13.672 11.4906 13.8921 10.7533 13.8888 10C13.8866 9.49858 13.7855 9.00252 13.5913 8.54024C13.397 8.07796 13.1135 7.65856 12.7568 7.30606C12.4002 6.95357 11.9775 6.67492 11.513 6.48607C11.0485 6.29723 10.5513 6.2019 10.0499 6.20556ZM10.0499 12.7167C9.51782 12.7112 8.99922 12.5486 8.55924 12.2493C8.11926 11.9501 7.77751 11.5275 7.57692 11.0346C7.37633 10.5418 7.32584 10.0007 7.4318 9.4792C7.53775 8.95775 7.79542 8.47922 8.17244 8.10373C8.54947 7.72825 9.02904 7.47253 9.55092 7.36871C10.0728 7.26489 10.6137 7.31758 11.1058 7.52018C11.5978 7.72278 12.019 8.06625 12.3164 8.50745C12.6139 8.94865 12.7744 9.46791 12.7777 10C12.7792 10.3581 12.7095 10.713 12.5728 11.044C12.4361 11.375 12.2351 11.6755 11.9814 11.9282C11.7276 12.1809 11.4262 12.3808 11.0947 12.5161C10.7631 12.6514 10.408 12.7196 10.0499 12.7167Z" fill="#7D7D7D"/>
</svg>
