<svg width="9" height="16" viewBox="0 0 9 16" fill="none" xmlns="http://www.w3.org/2000/svg">
<path d="M0.657371 0.916221C0.548343 1.02784 0.487305 1.17769 0.487305 1.33372C0.487305 1.48975 0.548343 1.6396 0.657371 1.75122L6.74862 7.99997L0.657371 14.2475C0.548343 14.3591 0.487305 14.5089 0.487305 14.665C0.487305 14.821 0.548343 14.9708 0.657371 15.0825C0.710366 15.1369 0.773728 15.1802 0.843717 15.2097C0.913706 15.2392 0.988903 15.2545 1.06487 15.2545C1.14084 15.2545 1.21604 15.2392 1.28602 15.2097C1.35601 15.1802 1.41938 15.1369 1.47237 15.0825L7.94987 8.43622C8.06364 8.3195 8.12731 8.16296 8.12731 7.99997C8.12731 7.83698 8.06364 7.68044 7.94987 7.56372L1.47237 0.917471C1.41938 0.863042 1.35601 0.819781 1.28602 0.790241C1.21604 0.760702 1.14084 0.745483 1.06487 0.745483C0.988903 0.745483 0.913706 0.760702 0.843717 0.790241C0.773728 0.819781 0.710366 0.863042 0.657371 0.917471V0.916221Z" fill="#514A7E"/>
</svg>
